<?xml version="1.0" encoding="UTF-8" standalone="no"?>
<!DOCTYPE svg PUBLIC "-//W3C//DTD SVG 1.1//EN"
 "http://www.w3.org/Graphics/SVG/1.1/DTD/svg11.dtd">
<!-- Generated by graphviz version 15.1.0 (20260618.0150)
 -->
<!-- Title: Kripke Pages: 1 -->
<svg width="760pt" height="365pt"
 viewBox="0.00 0.00 760.00 365.00" xmlns="http://www.w3.org/2000/svg" xmlns:xlink="http://www.w3.org/1999/xlink">
<g id="graph0" class="graph" transform="scale(1 1) rotate(0) translate(4 360.78)">
<title>Kripke</title>
<polygon fill="white" stroke="none" points="-4,4 -4,-360.78 756.28,-360.78 756.28,4 -4,4"/>
<!-- __start -->
<g id="node1" class="node">
<title>__start</title>
<ellipse fill="black" stroke="black" cx="4.32" cy="-169.69" rx="4.32" ry="4.32"/>
</g>
<!-- k5 -->
<g id="node2" class="node">
<title>k5</title>
<ellipse fill="none" stroke="black" cx="96.37" cy="-169.69" rx="51.73" ry="51.73"/>
<text xml:space="preserve" text-anchor="middle" x="96.37" y="-165.01" font-family="monospace" font-size="14.00">Waiting</text>
</g>
<!-- __start&#45;&gt;k5 -->
<g id="edge1" class="edge">
<title>__start&#45;&gt;k5</title>
<path fill="none" stroke="black" d="M8.74,-169.69C13.41,-169.69 22.43,-169.69 32.93,-169.69"/>
<polygon fill="black" stroke="black" points="32.79,-173.19 42.79,-169.69 32.79,-166.19 32.79,-173.19"/>
</g>
<!-- k5&#45;&gt;k5 -->
<g id="edge13" class="edge">
<title>k5&#45;&gt;k5</title>
<path fill="none" stroke="black" d="M79.42,-218.88C80.74,-230.68 86.4,-239.42 96.37,-239.42 102.92,-239.42 107.61,-235.66 110.43,-229.73"/>
<polygon fill="black" stroke="black" points="113.74,-230.91 112.94,-220.35 106.98,-229.1 113.74,-230.91"/>
</g>
<!-- k0 -->
<g id="node3" class="node">
<title>k0</title>
<ellipse fill="none" stroke="black" cx="555.29" cy="-187.69" rx="57.52" ry="57.52"/>
<text xml:space="preserve" text-anchor="middle" x="555.29" y="-183.01" font-family="monospace" font-size="14.00">Boarding</text>
</g>
<!-- k5&#45;&gt;k0 -->
<g id="edge10" class="edge">
<title>k5&#45;&gt;k0</title>
<path fill="none" stroke="black" d="M108.68,-220.08C120.39,-259.17 142.95,-310.75 184.11,-335.69 291.27,-400.6 431.98,-299.71 505.21,-235.04"/>
<polygon fill="black" stroke="black" points="507.12,-238.02 512.24,-228.75 502.45,-232.81 507.12,-238.02"/>
</g>
<!-- k1 -->
<g id="node4" class="node">
<title>k1</title>
<ellipse fill="none" stroke="black" cx="247.42" cy="-245.69" rx="63.31" ry="63.31"/>
<text xml:space="preserve" text-anchor="middle" x="247.42" y="-241.01" font-family="monospace" font-size="14.00">GoingDown</text>
</g>
<!-- k5&#45;&gt;k1 -->
<g id="edge11" class="edge">
<title>k5&#45;&gt;k1</title>
<path fill="none" stroke="black" d="M142.9,-192.9C154.72,-198.93 167.7,-205.54 180.34,-211.99"/>
<polygon fill="black" stroke="black" points="178.54,-215 189.04,-216.43 181.72,-208.77 178.54,-215"/>
</g>
<!-- k2 -->
<g id="node5" class="node">
<title>k2</title>
<ellipse fill="none" stroke="black" cx="247.42" cy="-94.69" rx="51.73" ry="51.73"/>
<text xml:space="preserve" text-anchor="middle" x="247.42" y="-90.01" font-family="monospace" font-size="14.00">GoingUp</text>
</g>
<!-- k5&#45;&gt;k2 -->
<g id="edge12" class="edge">
<title>k5&#45;&gt;k2</title>
<path fill="none" stroke="black" d="M142.9,-146.78C157.93,-139.21 174.82,-130.71 190.53,-122.81"/>
<polygon fill="black" stroke="black" points="191.94,-126.02 199.3,-118.39 188.8,-119.76 191.94,-126.02"/>
</g>
<!-- k0&#45;&gt;k0 -->
<g id="edge2" class="edge">
<title>k0&#45;&gt;k0</title>
<path fill="none" stroke="black" d="M528.26,-238.87C529.68,-252.69 538.69,-263.21 555.29,-263.21 567.09,-263.21 575.05,-257.89 579.19,-249.85"/>
<polygon fill="black" stroke="black" points="582.53,-250.9 581.91,-240.32 575.8,-248.98 582.53,-250.9"/>
</g>
<!-- k3 -->
<g id="node6" class="node">
<title>k3</title>
<ellipse fill="none" stroke="black" cx="700.54" cy="-129.69" rx="51.73" ry="51.73"/>
<text xml:space="preserve" text-anchor="middle" x="700.54" y="-125.01" font-family="monospace" font-size="14.00">Leaving</text>
</g>
<!-- k0&#45;&gt;k3 -->
<g id="edge3" class="edge">
<title>k0&#45;&gt;k3</title>
<path fill="none" stroke="black" d="M608.82,-166.42C619.48,-162.1 630.75,-157.54 641.58,-153.15"/>
<polygon fill="black" stroke="black" points="642.88,-156.4 650.83,-149.41 640.25,-149.92 642.88,-156.4"/>
</g>
<!-- k1&#45;&gt;k1 -->
<g id="edge4" class="edge">
<title>k1&#45;&gt;k1</title>
<path fill="none" stroke="black" d="M219.6,-303.05C221.77,-316.8 231.04,-326.99 247.42,-326.99 259.06,-326.99 267.11,-321.84 271.57,-313.92"/>
<polygon fill="black" stroke="black" points="274.88,-315.08 274.75,-304.48 268.24,-312.84 274.88,-315.08"/>
</g>
<!-- k4 -->
<g id="node7" class="node">
<title>k4</title>
<ellipse fill="none" stroke="black" cx="404.25" cy="-187.69" rx="57.52" ry="57.52"/>
<text xml:space="preserve" text-anchor="middle" x="404.25" y="-183.01" font-family="monospace" font-size="14.00">Stopping</text>
</g>
<!-- k1&#45;&gt;k4 -->
<g id="edge5" class="edge">
<title>k1&#45;&gt;k4</title>
<path fill="none" stroke="black" d="M306.95,-223.76C317.55,-219.79 328.65,-215.63 339.39,-211.61"/>
<polygon fill="black" stroke="black" points="340.42,-214.96 348.56,-208.17 337.97,-208.4 340.42,-214.96"/>
</g>
<!-- k2&#45;&gt;k2 -->
<g id="edge6" class="edge">
<title>k2&#45;&gt;k2</title>
<path fill="none" stroke="black" d="M219.1,-138.27C219.1,-152.8 228.54,-164.42 247.42,-164.42 261.13,-164.42 269.87,-158.28 273.62,-149.36"/>
<polygon fill="black" stroke="black" points="277.02,-150.24 275.45,-139.76 270.14,-148.92 277.02,-150.24"/>
</g>
<!-- k2&#45;&gt;k4 -->
<g id="edge7" class="edge">
<title>k2&#45;&gt;k4</title>
<path fill="none" stroke="black" d="M292.37,-121.09C308.66,-130.87 327.41,-142.13 344.79,-152.57"/>
<polygon fill="black" stroke="black" points="342.61,-155.35 352.99,-157.5 346.22,-149.35 342.61,-155.35"/>
</g>
<!-- k3&#45;&gt;k5 -->
<g id="edge8" class="edge">
<title>k3&#45;&gt;k5</title>
<path fill="none" stroke="black" d="M655.79,-103.4C562.93,-51.32 341.74,52.74 184.11,-33.69 154.15,-50.11 133.04,-81.78 119.16,-110.42"/>
<polygon fill="black" stroke="black" points="116.01,-108.88 115,-119.43 122.37,-111.82 116.01,-108.88"/>
</g>
<!-- k4&#45;&gt;k0 -->
<g id="edge9" class="edge">
<title>k4&#45;&gt;k0</title>
<path fill="none" stroke="black" d="M462.02,-187.69C469.96,-187.69 478.18,-187.69 486.3,-187.69"/>
<polygon fill="black" stroke="black" points="486.16,-191.19 496.16,-187.69 486.16,-184.19 486.16,-191.19"/>
</g>
</g>
</svg>
